<?xml version="1.0" standalone="no"?>
<!DOCTYPE svg PUBLIC "-//W3C//DTD SVG 20010904//EN"
 "http://www.w3.org/TR/2001/REC-SVG-20010904/DTD/svg10.dtd">
<svg version="1.0" xmlns="http://www.w3.org/2000/svg"
 width="512.000000pt" height="512.000000pt" viewBox="0 0 512.000000 512.000000"
 preserveAspectRatio="xMidYMid meet">

<g transform="translate(0.000000,512.000000) scale(0.100000,-0.100000)"
fill="#000000" stroke="none">
<path d="M2300 5106 c-325 -35 -577 -109 -877 -257 -486 -239 -899 -645 -1134
-1112 -66 -132 -68 -153 -18 -199 33 -32 82 -37 116 -13 11 8 51 70 88 137
177 326 405 589 688 797 l59 43 310 -118 c171 -65 317 -124 324 -132 8 -7 14
-22 14 -33 0 -62 92 -177 175 -218 118 -59 217 -50 383 35 141 73 195 87 297
82 238 -12 431 -229 413 -462 -6 -74 -28 -120 -70 -146 -17 -10 -90 -32 -162
-49 -191 -46 -268 -97 -322 -216 -29 -64 -114 -491 -114 -572 0 -95 31 -166
104 -239 73 -73 124 -93 265 -105 53 -5 120 -11 149 -15 49 -6 55 -5 83 22 23
22 29 36 29 70 0 79 -59 111 -234 123 -108 8 -127 14 -165 55 -39 42 -38 96 9
331 45 228 64 281 109 308 16 9 90 32 166 51 153 39 205 65 264 132 65 75 85
138 85 274 0 190 -53 320 -184 450 -136 135 -301 198 -489 187 -112 -6 -163
-23 -320 -101 -63 -31 -124 -56 -138 -56 -67 0 -136 60 -146 127 -8 46 -55
116 -97 141 -15 10 -140 60 -276 112 l-248 94 119 58 c359 172 794 253 1180
219 205 -18 299 -36 556 -106 57 -16 71 -17 98 -5 33 13 61 54 61 90 0 34 -27
76 -57 89 -105 42 -319 93 -498 117 -158 21 -445 26 -595 10z"/>
<path d="M4109 5100 c-92 -19 -227 -77 -306 -131 -108 -74 -194 -173 -262
-301 -139 -260 -123 -607 40 -845 42 -61 593 -769 627 -805 31 -34 80 -45 115
-26 14 7 168 195 342 418 397 509 434 576 451 825 17 236 -70 461 -245 636
-206 206 -481 289 -762 229z m306 -195 c182 -38 352 -170 434 -335 44 -90 71
-193 71 -275 0 -129 -48 -281 -119 -381 -67 -93 -514 -664 -520 -664 -6 1
-262 327 -455 579 -134 176 -178 287 -178 451 0 116 20 198 73 301 129 248
417 382 694 324z"/>
<path d="M4172 4674 c-204 -54 -340 -267 -303 -471 32 -180 168 -315 345 -346
240 -41 470 142 484 385 7 128 -32 234 -122 324 -107 107 -259 148 -404 108z
m209 -211 c35 -19 64 -43 84 -71 27 -40 30 -51 30 -122 0 -71 -3 -82 -30 -122
-59 -85 -180 -120 -270 -79 -86 39 -129 106 -129 201 0 71 14 107 61 154 68
70 164 84 254 39z"/>
<path d="M4860 3312 c-36 -37 -38 -70 -11 -180 97 -384 92 -806 -15 -1197 -28
-105 -29 -126 -9 -164 31 -62 120 -64 161 -4 22 33 74 230 99 378 56 327 39
711 -46 1049 -26 106 -48 135 -106 143 -37 5 -45 2 -73 -25z"/>
<path d="M131 3266 c-58 -32 -69 -119 -22 -167 50 -50 122 -35 157 33 44 85
-51 180 -135 134z"/>
<path d="M849 3115 c-212 -33 -425 -147 -574 -307 -308 -328 -361 -828 -129
-1209 51 -85 791 -1032 817 -1046 12 -7 33 -12 47 -12 14 0 35 5 47 12 19 11
647 806 763 967 84 116 156 278 175 391 4 24 11 50 15 58 5 9 50 -48 139 -177
72 -104 140 -197 151 -207 10 -9 35 -17 54 -18 74 -2 125 72 94 136 -8 18
-116 176 -238 352 -167 240 -227 335 -242 380 -79 245 -261 458 -494 577 -204
105 -402 137 -625 103z m386 -220 c266 -77 469 -280 551 -550 24 -77 27 -108
28 -220 0 -96 -4 -148 -18 -200 -22 -83 -72 -196 -114 -257 -65 -95 -663 -853
-672 -853 -9 0 -607 758 -672 853 -42 61 -92 174 -114 257 -14 52 -18 104 -18
200 1 112 4 143 28 220 92 304 334 517 653 575 85 16 249 4 348 -25z"/>
<path d="M861 2664 c-142 -38 -293 -156 -359 -281 -41 -77 -72 -197 -72 -278
0 -134 59 -285 151 -388 262 -295 753 -235 938 113 40 75 71 195 71 275 0 81
-31 201 -72 278 -67 127 -218 244 -364 282 -73 19 -221 19 -293 -1z m260 -198
c92 -28 181 -102 224 -186 97 -190 19 -423 -173 -517 -51 -25 -67 -28 -162
-28 -95 0 -111 3 -162 28 -269 132 -289 504 -36 664 23 14 59 31 82 38 55 18
171 18 227 1z"/>
<path d="M4245 2571 c-37 -15 -58 -49 -63 -101 -6 -62 12 -106 49 -125 78 -41
149 13 149 114 0 55 -17 87 -55 106 -36 17 -50 18 -80 6z"/>
<path d="M4000 2179 c-50 -30 -70 -58 -70 -102 0 -43 31 -82 75 -93 37 -9 109
21 141 59 22 26 25 38 21 71 -11 79 -91 110 -167 65z"/>
<path d="M3095 2131 c-61 -26 -79 -112 -33 -158 28 -27 95 -41 143 -29 89 22
101 143 18 185 -25 13 -98 14 -128 2z"/>
<path d="M3545 2131 c-61 -26 -79 -112 -33 -158 28 -27 95 -41 143 -29 89 22
101 143 18 185 -25 13 -98 14 -128 2z"/>
<path d="M2792 1940 c-28 -12 -82 -96 -82 -127 0 -54 48 -103 101 -103 57 0
119 74 119 143 0 67 -74 114 -138 87z"/>
<path d="M3542 1794 c-13 -9 -28 -28 -33 -42 -13 -33 -69 -701 -69 -817 0
-157 49 -282 156 -395 l64 -67 -108 -50 c-375 -177 -801 -252 -1198 -212 -60
6 -110 12 -112 14 -2 1 16 39 40 84 l43 81 50 0 c177 1 317 85 384 230 22 48
26 73 32 195 5 125 9 146 32 192 31 61 33 84 10 123 -41 70 -127 65 -177 -10
-42 -64 -56 -125 -64 -276 -7 -134 -9 -144 -35 -178 -44 -57 -77 -69 -207 -76
-63 -3 -124 -10 -135 -17 -12 -6 -58 -79 -104 -163 -64 -115 -87 -149 -100
-146 -9 3 -47 14 -86 24 -146 40 -317 108 -458 181 -93 49 -126 51 -167 14
-40 -37 -47 -78 -20 -121 17 -27 49 -47 163 -102 295 -143 562 -216 906 -250
607 -60 1285 142 1784 531 75 58 232 204 300 276 47 52 57 69 57 98 0 66 -57
115 -117 100 -16 -4 -80 -58 -153 -128 -69 -68 -178 -162 -242 -210 l-117 -88
-32 17 c-50 25 -132 113 -159 169 -36 76 -36 172 -1 588 29 335 30 370 16 397
-8 16 -24 34 -34 40 -29 15 -83 12 -109 -6z"/>
<path d="M2534 1547 c-42 -35 -68 -97 -60 -140 8 -44 35 -67 83 -74 32 -4 45
0 71 22 93 78 79 198 -24 212 -33 4 -45 1 -70 -20z"/>
<path d="M4654 1421 c-34 -15 -64 -60 -64 -97 0 -100 139 -133 185 -44 22 43
18 76 -12 110 -30 32 -75 45 -109 31z"/>
<path d="M2318 1190 c-40 -12 -85 -41 -97 -64 -36 -74 4 -146 82 -146 52 0
120 40 137 79 31 76 -40 153 -122 131z"/>
<path d="M1868 980 c-45 -24 -68 -55 -68 -92 0 -43 20 -76 57 -93 31 -15 38
-15 83 0 96 32 130 116 71 176 -36 35 -87 38 -143 9z"/>
</g>
</svg>
